<svg width="1280" viewBox="0 0 680 360" xmlns="http://www.w3.org/2000/svg"><rect x="0" y="0" width="680" height="360" fill="#0a0a0a"/><defs><linearGradient id="sl" x1="0" y1="0" x2="0" y2="1"><stop offset="0%" stop-color="#00ff00" stop-opacity="0.08"/><stop offset="50%" stop-color="#00ff00" stop-opacity="0.02"/><stop offset="100%" stop-color="#00ff00" stop-opacity="0.08"/></linearGradient><linearGradient id="gl" x1="0" y1="0" x2="1" y2="0"><stop offset="0%" stop-color="#00ff00" stop-opacity="0"/><stop offset="50%" stop-color="#00ff00" stop-opacity="0.15"/><stop offset="100%" stop-color="#00ff00" stop-opacity="0"/></linearGradient></defs><rect x="0" y="0" width="680" height="360" fill="url(#sl)"/><rect x="40" y="175" width="600" height="1" fill="url(#gl)"/><g opacity="0.12"><line x1="0" y1="20" x2="680" y2="20" stroke="#00ff00" stroke-width="0.3"/><line x1="0" y1="40" x2="680" y2="40" stroke="#00ff00" stroke-width="0.3"/><line x1="0" y1="60" x2="680" y2="60" stroke="#00ff00" stroke-width="0.3"/><line x1="0" y1="80" x2="680" y2="80" stroke="#00ff00" stroke-width="0.3"/><line x1="0" y1="280" x2="680" y2="280" stroke="#00ff00" stroke-width="0.3"/><line x1="0" y1="300" x2="680" y2="300" stroke="#00ff00" stroke-width="0.3"/><line x1="0" y1="320" x2="680" y2="320" stroke="#00ff00" stroke-width="0.3"/><line x1="0" y1="340" x2="680" y2="340" stroke="#00ff00" stroke-width="0.3"/></g><text x="340" y="42" text-anchor="middle" font-family="monospace" font-size="32" font-weight="700" fill="#00dd00" letter-spacing="8">CHAFF</text><text x="340" y="68" text-anchor="middle" font-family="monospace" font-size="11" fill="#00aa00" letter-spacing="3" opacity="0.7">RADAR COUNTERMEASURES FOR YOUR NETWORK TRAFFIC</text><text x="52" y="106" font-family="monospace" font-size="10" fill="#00aa00" opacity="0.5">WITHOUT CHAFF</text><g transform="translate(52,112)"><rect x="0" y="0" width="8" height="28" rx="1" fill="#ff4444" opacity="0.9"/><rect x="18" y="8" width="8" height="12" rx="1" fill="#ff4444" opacity="0.5"/><rect x="80" y="0" width="8" height="32" rx="1" fill="#ff4444" opacity="0.95"/><rect x="92" y="4" width="8" height="24" rx="1" fill="#ff4444" opacity="0.8"/><rect x="104" y="6" width="8" height="20" rx="1" fill="#ff4444" opacity="0.7"/><rect x="112" y="10" width="8" height="14" rx="1" fill="#ff4444" opacity="0.5"/><rect x="250" y="2" width="8" height="26" rx="1" fill="#ff4444" opacity="0.85"/><rect x="262" y="6" width="8" height="18" rx="1" fill="#ff4444" opacity="0.6"/><rect x="400" y="0" width="8" height="30" rx="1" fill="#ff4444" opacity="0.9"/><rect x="412" y="4" width="8" height="22" rx="1" fill="#ff4444" opacity="0.7"/><rect x="424" y="8" width="8" height="16" rx="1" fill="#ff4444" opacity="0.55"/><rect x="436" y="10" width="8" height="12" rx="1" fill="#ff4444" opacity="0.4"/><rect x="520" y="4" width="8" height="20" rx="1" fill="#ff4444" opacity="0.65"/></g><text x="52" y="160" font-family="monospace" font-size="9" fill="#444" opacity="0.8">|    burst    |           idle           |  burst  |         idle        |  burst |    idle   |</text><text x="600" y="106" text-anchor="end" font-family="monospace" font-size="9" fill="#ff4444" opacity="0.6">timing leaks activity</text><text x="52" y="192" font-family="monospace" font-size="10" fill="#00dd00" opacity="0.7">WITH CHAFF -- POISSON SCHEDULING</text><g transform="translate(52,200)"><rect x="0" y="2" width="6" height="22" rx="1" fill="#00dd00" opacity="0.7"/><rect x="14" y="2" width="6" height="22" rx="1" fill="#00ff44" opacity="0.9"/><rect x="38" y="2" width="6" height="22" rx="1" fill="#00dd00" opacity="0.7"/><rect x="48" y="2" width="6" height="22" rx="1" fill="#00dd00" opacity="0.65"/><rect x="68" y="2" width="6" height="22" rx="1" fill="#00ff44" opacity="0.9"/><rect x="82" y="2" width="6" height="22" rx="1" fill="#00dd00" opacity="0.7"/><rect x="104" y="2" width="6" height="22" rx="1" fill="#00dd00" opacity="0.65"/><rect x="116" y="2" width="6" height="22" rx="1" fill="#00ff44" opacity="0.9"/><rect x="138" y="2" width="6" height="22" rx="1" fill="#00dd00" opacity="0.7"/><rect x="156" y="2" width="6" height="22" rx="1" fill="#00dd00" opacity="0.6"/><rect x="172" y="2" width="6" height="22" rx="1" fill="#00ff44" opacity="0.9"/><rect x="192" y="2" width="6" height="22" rx="1" fill="#00dd00" opacity="0.7"/><rect x="206" y="2" width="6" height="22" rx="1" fill="#00dd00" opacity="0.65"/><rect x="230" y="2" width="6" height="22" rx="1" fill="#00ff44" opacity="0.9"/><rect x="244" y="2" width="6" height="22" rx="1" fill="#00dd00" opacity="0.7"/><rect x="262" y="2" width="6" height="22" rx="1" fill="#00dd00" opacity="0.6"/><rect x="280" y="2" width="6" height="22" rx="1" fill="#00dd00" opacity="0.7"/><rect x="298" y="2" width="6" height="22" rx="1" fill="#00ff44" opacity="0.9"/><rect x="316" y="2" width="6" height="22" rx="1" fill="#00dd00" opacity="0.65"/><rect x="338" y="2" width="6" height="22" rx="1" fill="#00dd00" opacity="0.7"/><rect x="356" y="2" width="6" height="22" rx="1" fill="#00ff44" opacity="0.9"/><rect x="370" y="2" width="6" height="22" rx="1" fill="#00dd00" opacity="0.7"/><rect x="392" y="2" width="6" height="22" rx="1" fill="#00dd00" opacity="0.6"/><rect x="410" y="2" width="6" height="22" rx="1" fill="#00ff44" opacity="0.9"/><rect x="430" y="2" width="6" height="22" rx="1" fill="#00dd00" opacity="0.7"/><rect x="450" y="2" width="6" height="22" rx="1" fill="#00dd00" opacity="0.65"/><rect x="468" y="2" width="6" height="22" rx="1" fill="#00dd00" opacity="0.7"/><rect x="488" y="2" width="6" height="22" rx="1" fill="#00ff44" opacity="0.9"/><rect x="510" y="2" width="6" height="22" rx="1" fill="#00dd00" opacity="0.65"/><rect x="526" y="2" width="6" height="22" rx="1" fill="#00dd00" opacity="0.7"/><rect x="548" y="2" width="6" height="22" rx="1" fill="#00ff44" opacity="0.9"/><rect x="564" y="2" width="6" height="22" rx="1" fill="#00dd00" opacity="0.7"/></g><text x="52" y="242" font-family="monospace" font-size="9" fill="#1a4a1a" opacity="0.9">|  uniform size  |  stochastic timing  |  real traffic hidden in chaff  |  no idle gaps  |</text><text x="600" y="192" text-anchor="end" font-family="monospace" font-size="9" fill="#00dd00" opacity="0.6">observer sees only noise</text><text x="340" y="275" text-anchor="middle" font-family="monospace" font-size="11" fill="#00aa00" opacity="0.5">delay = -ln(random()) / lambda</text><text x="340" y="295" text-anchor="middle" font-family="monospace" font-size="9" fill="#006600" opacity="0.4">exponential inter-arrival times // statistically indistinguishable from organic traffic</text><line x1="160" y1="318" x2="520" y2="318" stroke="#003300" stroke-width="0.5" opacity="0.4"/><text x="340" y="340" text-anchor="middle" font-family="monospace" font-size="12" fill="#00aa00" letter-spacing="6" opacity="0.55">ONTOS LABS</text><text x="340" y="354" text-anchor="middle" font-family="monospace" font-size="8" fill="#004400" opacity="0.3">SOCKS5 proxy // Poisson scheduler // asyncio // pure Python // MIT</text><rect x="0" y="0" width="680" height="360" fill="none" stroke="#003300" stroke-width="1" opacity="0.5"/></svg>